<svg width="320" height="568" viewBox="0 0 320 568" fill="none" xmlns="http://www.w3.org/2000/svg">
<g clip-path="url(#clip0_1354_2713)">
<rect width="320" height="568" fill="#D2C65E"/>
<path d="M-29.7262 536.776L-11.5262 523.396C-10.2162 522.436 -8.39623 522.636 -7.33623 523.866C-0.276229 532.126 26.0738 560.006 50.0738 547.186C80.0338 531.186 55.6438 480.006 42.2438 439.276C29.4738 400.466 18.1638 347.886 64.1938 325.916C116.964 300.726 154.844 348.906 188.964 397.066C228.994 453.576 274.004 484.166 326.804 415.416C327.864 414.046 329.844 413.806 331.194 414.896C338.664 420.896 346.744 427.226 350.524 430.176C351.794 431.166 352.094 432.946 351.224 434.296C344.464 444.886 314.774 486.596 266.914 486.596C212.104 486.596 175.004 434.506 160.024 412.386C145.044 390.266 116.624 338.336 79.3438 354.166C47.5838 367.656 62.3238 413.396 68.7938 431.786C75.2638 450.176 117.304 538.846 68.1138 570.676C22.3538 600.286 -20.6262 553.026 -30.2962 541.236C-31.4262 539.866 -31.1662 537.826 -29.7262 536.776Z" fill="#DCD383"/>
</g>
<defs>
<clipPath id="clip0_1354_2713">
<rect width="320" height="568" fill="white"/>
</clipPath>
</defs>
</svg>
