<svg width="27" height="24" viewBox="0 0 27 24" fill="none" xmlns="http://www.w3.org/2000/svg">
<path d="M10.1456 7.30353C10.1456 7.15378 10.0263 7.03968 9.88583 7.03968L7.25274 7.08247L5.8063 7.03968C5.65884 7.03968 5.53948 7.15378 5.53948 7.30353V9.09344C5.53948 9.24319 5.66587 9.36442 5.81332 9.35729L8.32704 9.2218L9.87179 9.35016C10.0192 9.36442 10.1527 9.24319 10.1527 9.08631V7.30353H10.1456Z" fill="#242A2B"/>
<path d="M10.3141 2.32602L10.1667 0.807097C10.1527 0.664475 10.0333 0.564639 9.89285 0.57177L7.58276 0.707261L5.78523 0.57177C5.65182 0.564639 5.52543 0.664475 5.51139 0.799966L5.32181 2.32602C5.30777 2.45438 5.19542 2.55422 5.06903 2.55422H0.926302C0.778849 2.55422 0.666504 2.67545 0.666504 2.8252L1.01758 15.1192L0.666504 23.4412C0.666504 23.591 0.771828 23.7122 0.919281 23.7122L8.09533 23.9047L26.5972 23.7122C26.7446 23.7122 26.857 23.591 26.85 23.4412L26.6463 15.6683L26.8289 8.52295L26.857 2.83233C26.857 2.68258 26.7376 2.56848 26.5902 2.56848L16.5423 2.78954L10.5599 2.56848C10.4335 2.56848 10.3282 2.46151 10.3141 2.33315V2.32602ZM24.3503 21.4303L8.45343 21.7654L3.15916 21.4374C3.01873 21.4303 2.90639 21.3019 2.91341 21.1593L3.20831 15.704L2.90639 5.08576C2.90639 4.94314 3.01171 4.82191 3.15214 4.81478L5.78523 4.66502L16.7178 5.02871L24.3362 4.83617C24.4837 4.83617 24.6031 4.95027 24.6031 5.10002L24.4486 15.8823L24.596 21.1521C24.596 21.2948 24.4837 21.416 24.3433 21.4231L24.3503 21.4303Z" fill="#242A2B"/>
<path d="M15.7699 18.7561C19.4633 19.4692 22.644 16.2388 21.9419 12.4878C21.5487 10.3913 19.8846 8.70123 17.8202 8.30189C14.1269 7.58878 10.9461 10.8192 11.6482 14.5701C12.0415 16.6667 13.7056 18.3567 15.7699 18.7561ZM15.9806 10.5981C18.2556 9.98483 20.2848 12.0457 19.6809 14.3562C19.4141 15.3688 18.6066 16.196 17.6096 16.4599C15.3346 17.0731 13.3053 15.0123 13.9092 12.7018C14.176 11.6892 14.9835 10.862 15.9876 10.591L15.9806 10.5981Z" fill="#242A2B"/>
</svg>
